<?xml version="1.0" encoding="UTF-8" standalone="no"?>
<svg xmlns:rdf="http://www.w3.org/1999/02/22-rdf-syntax-ns#" xmlns="http://www.w3.org/2000/svg" xml:space="preserve" height="90.574" viewBox="0 0 99.823753 90.573753" width="99.824" version="1.1" xmlns:cc="http://creativecommons.org/ns#" xmlns:dc="http://purl.org/dc/elements/1.1/"><g transform="matrix(1.25 0 0 -1.25 -842.64 239.39)"><g transform="translate(.92221 .92221)"><path d="m720.15 129.76h-13.163c0.576 1.165 1.514 3.065 2.6 5.26 2.976-0.342 4.645 0.465 4.645 0.465 0.373 0.369 1.25 1.641 1.701 2.307 1.451-0.828 2.831-0.934 2.953-0.948 0.653-0.424 0.796-0.605 0.826-0.666-0.504-0.247-0.768-0.677-0.768-1.232 0-0.252 0.059-0.536 0.172-0.839l0.056-0.157 0.049 0.162c0.085 0.313 0.355 0.637 0.709 0.834 0.403 0.226 0.865 0.276 1.3 0.136 0.446-0.126 0.749-0.404 0.855-0.789 0.147-0.515-0.087-1.16-0.634-1.771l-0.154-0.168 0.21 0.091c0.826 0.324 1.351 0.759 1.567 1.287 0.08 0.189 0.107 0.364 0.107 0.526 0 0.152-0.027 0.268-0.047 0.343 0.176-0.056 0.569-0.226 0.79-0.611 0.021-0.04 0.039-0.08 0.057-0.13l-1.154-2.345c-0.872-1.755-2.234-1.755-2.677-1.755m-26.621 27.767c0.47 0.951 0.94 1.91 1.384 2.805 0.891-1.121 1.846-2.077 2.65-2.805h-4.034zm10.362 21s0.213 0.43 0.438 0.884h15.277 0.032c-0.298-0.603-1.551-3.146-1.551-3.146-0.367-0.744-1.371-1.172-2.743-1.172h-13.15c0.844 1.716 1.697 3.434 1.697 3.434m8.003-14.812-0.528-1.075c-0.719 0.565-1.441 1.141-2.169 1.731h3.008c-0.082-0.181-0.183-0.393-0.311-0.656m18.246-17.412h14.191l8.038 16.241h-3.44-9.509c1.376 0.807 3.043 2.246 3.936 4.682-1.694-1.83-3.29-2.183-3.29-2.183s2.217 2.177 2.708 5.884c-2.283-3.024-3.258-3.332-3.258-3.332s4.575 5.757 2.127 11.145c-0.252-9.603-10.805-13.206-14.632-15.612-0.685-0.433-1.311-0.881-1.893-1.341l0.361 0.73c0.327 0.654 1.086 2.199 1.086 3.915 0 0.783-0.159 1.611-0.599 2.395-0.085 0.156-0.206 0.287-0.308 0.432 2.734 1.164 4.633 2.964 5.9 5.535l2.005 4.046c0.872 1.766 1.617 3.585 1.617 5.266 0 0.86-0.194 1.679-0.67 2.435-1.8 2.905-6.469 3.372-16.928 3.372h-20.903-1.325l-21.244-42.914h20.29c2.626 0 4.921 0.026 6.942 0.072l-13.849-28.017h26.698c13.864 0 17.489 1.664 21.552 9.907l4.798 9.681h-14.19l-0.853-1.718c-0.261 0.112-0.51 0.228-0.724 0.38-0.476 1.53-1.777 3.686-2.587 4.95 1.428-0.465 2.73-1.046 3.879-1.718 0.537-0.895 1.306-1.416 1.312-1.416l0.034-0.024 0.021 0.04c0.025 0.035 0.543 0.919 0.664 1.516 0.17-0.228 0.232-0.547 0.232-0.849 0-0.505-0.133-0.969-0.133-0.986l-0.021-0.074 0.223 0.101c1.099 0.454 1.768 1.035 1.98 1.715l0.039 0.168c0.18 0.894-0.45 1.728-0.843 2.132 0.069 0.212 0.171 1.086-1.062 2.374-0.602 0.629-1.243 1.161-1.896 1.604 2.06 1.012 3.319 2.939 4.506 5.085h1.806c-0.63-1.245-2.788-5.619-2.788-5.619" fill="#231f20"/><path d="m59.674 52.209c0.77375 0.95875 1.3223 2.084 1.3223 2.084s-1.5841-0.29234-3.8691 0.50391c0 0 1.5947 0.31656 3.4609 1.5703 0 0-1.5009 0.72766-2.4297 1.5039 3.8338 0.89625 6.3652 2.7285 6.3652 2.7285s-0.65242-1.3706-0.82617-2.0469c1-0.0175 2.2402 0.4043 2.2402 0.4043 0.23625-0.06375 0.4893-0.12617 0.74805-0.16992-0.2-0.0625-0.3793-0.20805-0.5293-0.4043-0.2475 0.2225-0.62984 0.22914-0.90234 0.02539-0.31375-0.24125-0.37297-0.69672-0.13672-1.0117 0.1325-0.1575 0.3132-0.25328 0.50195-0.26953-0.17375-0.66375-1.168-1.3066-1.168-1.3066 1.8288 0.86375 1.4695 1.4652 2.0332 2.2539 0.485 0.68 1.0241 0.0832 0.91406-0.2168 0.275 0.3625 0.11086 0.68516-0.11914 0.84766 0.42875-0.03375 0.84297-0.0012 1.1992 0.125 0.42375-2.3738-4.7484-5.7548-8.8047-6.6211zm8.7656 7.6504c1.1662 0.89625 0.66406 1.9062 0.66406 1.9062 0.7-0.7075 0.04625-1.5281-0.15625-1.7656-0.185-0.0775-0.50781-0.14062-0.50781-0.14062zm-25.457 2.4629c-2.7125 1.815-5.3613 2.0312-5.3613 2.0312s4.9716 4.7274 11.945 2.6387c0 0-5.1265-0.81867-6.584-4.6699z" transform="matrix(.8 0 0 -.8 674.11 189.92)" fill="#fff"/><path d="m27.832 2.0508-24.52 49.539h25.002c3.1662 0 5.9468-0.04492 8.4043-0.10742-0.3625-0.385-0.69219-0.77633-1.0234-1.2051-2.1812 0.0625-4.6259 0.08203-7.3809 0.08203h-23.033c0.8365-1.693 22.978-46.431 23.311-47.079h25.748c10.841 0 16.985 0.40875 18.383 2.6562 0.22875 0.37125 0.34375 0.81242 0.34375 1.3574 0 1.155-0.54641 2.7713-1.6914 5.0938l-2.5059 5.0566c-2.0975 4.2688-6.5073 6.3709-13.809 7.5059 3.7175 0.48125 9.1925 1.9711 6.2188 7.8398-0.88125 1.7288-3.8887 7.8457-3.8887 7.8457-0.48375 0.98625-0.93047 1.876-1.3867 2.666 0.24375 0.385 0.49024 0.77742 0.70898 1.1699 0.14875-0.2525 0.30648-0.50898 0.45898-0.77148 0.385-0.93625 0.88453-1.9212 1.5195-2.9375l3.6777-7.4355c0.76875-1.5475 1.1465-2.854 1.1465-3.9902 0-0.7425-0.16703-1.3871-0.48828-1.9746-0.5675-1.0088-1.6179-1.7634-3.1816-2.2734 5.125-1.0662 8.2461-3.2834 10.121-7.0996l2.5039-5.0664c1.09-2.2 1.8223-4.0823 1.8223-5.6348 0-0.73125-0.16625-1.402-0.53125-1.9883-1.7225-2.7587-7.6344-3.25-19.422-3.25h-26.131-0.37695zm7.8965 7.793-1.584 3.2422-1.4121 2.8398c0.08875 0.64375 0.21476 1.3045 0.38477 1.9883 0.98625-2.0087 2.125-4.293 2.125-4.293s0.875-1.7908 1.25-2.5508h20.377c1.7 0 2.2667 0.34172 2.4492 0.63672 0.07625 0.11625 0.10742 0.27094 0.10742 0.42969 0 0.42875-0.2207 0.98438-0.43945 1.4219l-2.174 4.419c-0.8225 1.6538-2.7345 2.5977-5.2695 2.5977h-17.535c0.17375 0.4125 0.35938 0.81906 0.57813 1.2266h16.957c3.005 0 5.3254-1.1984 6.3691-3.2871 0 0 2.1599-4.4016 2.1699-4.4141 0.375-0.7575 0.56055-1.4134 0.56055-1.9746 0-0.39875-0.0925-0.7575-0.28125-1.0625-0.5175-0.8325-1.6259-1.2188-3.4922-1.2188h-20.756-0.38476zm4.3887 18.801c0.43875 0.4225 0.88453 0.82625 1.332 1.2188h6.6445c0.68 0 1.5491 0.09 1.8203 0.53125 0.0775 0.125 0.11133 0.28148 0.11133 0.49024 0 0.73625-0.51922 1.8993-0.94922 2.7793l-0.86328 1.7461c0.32875 0.25875 0.65141 0.52406 0.97266 0.78906l0.98242-2.002c0.9425-1.9062 1.4373-3.3947 0.77734-4.4609-0.45125-0.73375-1.3878-1.0918-2.8516-1.0918h-7.9766zm-16.228 5.209-4.889 9.91h13.119c-0.13375-0.41125-0.2593-0.82297-0.37305-1.2305h-10.777c0.4075-0.82375 2.1317-4.3132 3.668-7.4395-0.25875-0.4075-0.51305-0.81898-0.74805-1.2402zm57.633 2.4297c-0.6175 0.44125-1.208 0.83344-1.7793 1.2109h0.0039 12.793c-0.75375 1.5338-6.5002 13.131-6.8027 13.734h-10.414c0.6675-1.3438 3.4785-7.0352 3.4785-7.0352l-5.7598 0.01367c-0.22625 0.3975-0.44742 0.79774-0.66992 1.209h4.4648c-0.67125 1.3588-3.4824 7.0371-3.4824 7.0371h13.139l8.0176-16.17h-0.98633-12.002zm-43.772 17.15c-0.44875 0.0325-0.90953 0.03625-1.3945 0.0625l-16.316 33.027h30.062c17.25 0 20.664-2.253 25.098-11.248l4.5273-9.1348h-13.152l-0.38477 0.76953c0.4025 0.14625 0.7868 0.30414 1.123 0.49414 0.0088-0.01375 0.01703-0.03242 0.01953-0.04492h10.42c-0.69125 1.4125-3.6484 7.377-3.6484 7.377-4.1562 8.4262-7.0532 10.557-24.002 10.557h-28.096c0.615-1.225 10.556-21.351 15.744-31.854v-0.0059zm27.934 3.9473c-0.135 0-0.26977 0.05578-0.35352 0.17578-0.16375 0.2025-0.12367 0.48383 0.08008 0.64258 0.05875 0.05 0.12938 0.07023 0.20312 0.08398-0.14375-0.11625-0.16664-0.31469-0.05664-0.46094 0.0575-0.07625 0.14211-0.1207 0.22461-0.12695-0.03625-0.11-0.07016-0.2157-0.09766-0.31445zm-1.1387 1.6758c0.26375 0.6975 0.7982 2.2363 1.9707 3.5176-0.92625-1.7575-1.2949-2.9531-1.2949-2.9531s1.8824 0.45922 2.7012 1.3867c0.6675 0.74625 0.58828 1.3917 0.55078 1.5742 0.17875-0.08875 0.95477-0.46875 1.166-1.1562 0.06625-0.23 0.07906-0.48664-0.02344-0.77539-0.29625-0.88375-0.93641-1.316-0.94141-1.3223-0.8275-0.4475-2.5713 0.12695-2.5801 0.12695s-0.79133-0.25844-1.5488-0.39844zm3.6445 0.35547c0.17203 0.0077 0.27148 0.03711 0.27148 0.03711 0.15875 0.075 0.35742 0.33398 0.35742 0.33398s-0.66094-0.295-1.3359-0.28125c0.28938-0.08313 0.535-0.0975 0.70703-0.08984zm-1.5723 1.1738c0.18625 0.64375 0.0059 1.6797 0.0059 1.6797 0.38375-0.7975 0.40039-1.3848 0.40039-1.3848-0.13875-0.15125-0.40625-0.29492-0.40625-0.29492zm-8.8789 5.4902s-0.34539 0.03437-0.86914 0.04687c0.405 0.22 1.2138 0.75734 1.3613 0.93359-0.375 0.15875-1.0176 0.76953-1.0176 0.76953s1.1235-0.49805 1.9785-0.1543c1.175 0.475 1.4863 1.8613 1.4863 1.8613s0.17719-0.88758-0.22656-1.4863c0.87875 0.1 2.0703 1.0312 2.0703 1.0312s-0.48039-1.1262-3.1191-2.2324c-1.4238-0.59625-1.6641-0.76953-1.6641-0.76953zm5.0234 0.25195s-0.19945 0.19008-0.5957 0.29883c0 0 1.4321 0.55461 1.5996 0.69336-0.39 0.21625-0.73633 0.87109-0.73633 0.87109s0.78719-0.49828 1.8359-0.26953c0.945 0.19625 1.6055 1.1348 1.6055 1.1348s-0.0625-0.64344-0.4375-1.0547c0.81 0.0975 1.6641 0.57422 1.6641 0.57422s-0.24891-0.87648-2.9102-1.5215c-1.505-0.36375-2.0254-0.72656-2.0254-0.72656zm-21.715 1.5605c-2.8712 5.825-5.2246 10.578-5.2246 10.578h21.729c3.73 0 5.5355-2.5162 6.2793-4.0137 0 0 1.0959-2.2153 2.0859-4.2266 0.0825-0.3225 0.05492-0.61422-0.08008-0.88672-0.12625-0.21875-0.32578-0.40188-0.58203-0.51562l-2.5195 5.0859c-0.615 1.2375-2.1123 3.3379-5.1836 3.3379h-19.76c0.28875-0.58 2.1474-4.346 4.4512-9.0098-0.425-0.10375-0.81656-0.22336-1.1953-0.34961z" transform="matrix(.8 0 0 -.8 674.11 189.92)" fill="#dbcca4"/><path d="m28.592 3.2812c-0.333 0.6488-22.474 45.386-23.311 47.078h23.033c2.755 0 5.2009-0.01828 7.3809-0.08203-1.5375-1.9375-2.7787-4.1655-3.5762-6.5117h-13.119l4.8887-9.9121c-0.71-1.3138-1.2657-2.7027-1.5332-4.1602 1.4962 1.64 3.3825 2.39 4.625 2.7188l0.28125-0.47852c-5.5-4.3112-4.1895-11.633-4.1895-11.633s1.2744 5.6716 5.5469 7.8066c-5.4575-6.9312-1.8398-16.338-1.8398-16.338s-0.51 8.1451 5 14.236c-5.1475-11.22 1.5039-17.941 1.5039-17.941s-1.1477 3.4101-0.55273 7.8613l1.416-2.8418 1.582-3.2383h0.38476 20.756c1.865 0 2.9747 0.38305 3.4922 1.2168 0.18875 0.305 0.28125 0.66375 0.28125 1.0625 0 0.56125-0.18555 1.2171-0.56055 1.9746-0.01 0.01375-2.1699 4.4141-2.1699 4.4141-1.0425 2.0875-3.3629 3.2871-6.3691 3.2871h-16.955c0.49375 0.955 1.1077 1.9172 1.8652 2.8672 1.145 1.4362 2.3828 2.7578 3.6641 3.9766h7.9766c1.4625 0 2.4003 0.3593 2.8516 1.0918 0.65875 1.0662 0.16391 2.5559-0.77734 4.4609l-0.98242 2.002c2.6588 2.1838 5.0709 4.4248 6.8184 7.1035 0.4575-0.79 0.90172-1.6798 1.3867-2.666 0 0 3.0062-6.117 3.8887-7.8457 2.9738-5.8688-2.5-7.3605-6.2188-7.8418 7.3025-1.135 11.71-3.2345 13.809-7.502l2.5078-5.0566c1.1438-2.3238 1.6914-3.9407 1.6914-5.0957 0-0.54375-0.11695-0.98617-0.3457-1.3574-1.4-2.2469-7.545-2.6557-18.385-2.6557h-25.748zm3.3945 17.453c2.8962 13.091 12.601 14.916 19.193 22.238 2.0362 2.2712 5.6366 9.8668-1.0547 14.311-0.335 0.22875-0.74516 0.42836-1.1289 0.63086 0.20875 0.335 0.57102 0.7268 0.85352 1.0293 1.71 1.895 4.4336 3.2656 4.4336 3.2656s-3.173-0.40969-5.293-1.1172c2.14 2.19 6.4473 3.1562 6.4473 3.1562s-1.4073 0.10555-2.6348-0.0332c2.1512 1.2938 4.6348 0.72656 4.6348 0.72656-0.3725-2.2338-1.7031-4.5449-1.7031-4.5449s-1.4141-0.03203-3.4316-0.76953c1.0125 0.08 2.2198-0.09672 3.4785-0.35547 0.98625-0.2025 1.882-0.23117 2.6133-0.20117-0.89125-0.23875-1.8141-0.45961-2.7754-0.63086l-0.0918-0.02148 0.06836-0.0625c0.01875-0.01 1.547-1.3536 3.2832-1.9336-2.053-1.013-4.352-1.422-4.374-1.422l-0.13672-0.0332 0.125-0.05664c0.02875-0.02625 2.9377-1.4896 4.5664-1.5684-0.9-1.54-1.5602-2.4078-1.5664-2.4141l-0.0625-0.08203 0.10352 0.01953c0.03375 0 2.2966 0.16789 5.0254 1.3066-0.2375-2.35-0.54445-10.681 5.8418-16.129 5.33-4.57 11.277-5.8376 13.324-10.674-5.2462 6.9375-20.147 7.2826-23.922 22.768 1.6938 0.64375 3.0371 2.1602 3.0371 2.1602-0.82-0.335-1.6773-0.55414-2.3848-0.71289-0.36125-0.07125-1.0629-0.19102-1.1191-0.19726-0.25125-0.03625-0.43945-0.07031-0.43945-0.07031-0.38125-1.5962-1.1866-3.7849-2.8691-6.0137-5.4-7.1662-16.645-11.27-22.041-22.568zm-2.0098 6.0137s2.7027 8.947 11.24 16.238c-4.3525-1.9575-10.904-6.9141-10.904-6.9141s5.0991 7.6955 10.744 11.074c-2.5188-0.6075-5.209-1.9941-5.209-1.9941 1.9188 4.3688 10.045 11.298 14.301 6.3125 2.9425-3.4425-0.68516-8.239-6.7852-12.053-9.0088-5.6225-13.387-12.664-13.387-12.664zm50.994 3.7949c-4.1925 3.6375-10.537 5.4042-13.494 9.793-0.87875 1.31-1.4612 2.848-1.8438 4.3418 0.78125-0.5875 1.9509-1.3198 3.0371-1.4785 0 0-0.64711 4.2554-3.0371 7.3691 5.9713-2.545 3.3618-9.5469 13.467-14.141-2.66 0.04375-6.7578 1.627-6.7578 1.627 5.7162-3.2425 8.6289-7.5117 8.6289-7.5117zm-1.2246 6.9512c-2.4962 1.66-4.6009 2.9407-6.5996 6.502-0.03625 0.07-0.06742 0.14594-0.10742 0.21094l5.7598-0.01367s-2.8091 5.6914-3.4766 7.0352h10.414c0.3025-0.60375 6.049-12.201 6.8027-13.734h-12.793zm-41.068 15.908c-0.29875 0.0175-0.61273 0.02336-0.92773 0.03711-5.1888 10.502-15.127 30.627-15.742 31.852h28.094c16.949 0 19.846-2.1272 24.002-10.555 0 0 2.9584-5.9652 3.6484-7.3789h-10.42c-0.0037 0.01375-0.01078 0.03312-0.01953 0.04687 0.66125 0.39125 1.1409 0.94555 1.1797 1.8418 0.0175 0.365-0.03383 0.78422-0.17383 1.2617l-0.08008 0.26563-0.05078-0.26563c-0.185-0.975-0.85094-1.3874-1.1172-1.5137 0.01625 0.0625 0.0332 0.14578 0.0332 0.23828 0.02625 0.48125-0.14359 1.2888-1.4023 1.75l-0.17773 0.07031 0.09766-0.16602c0.15-0.225 0.24367-0.44961 0.29492-0.66211-0.99 2.0125-2.0859 4.2305-2.0859 4.2305-0.74375 1.4962-2.55 4.0117-6.2812 4.0117h-21.727s2.3527-4.7531 5.2227-10.578c-4.158-1.421-5.544-4.292-5.544-4.292s7.7105-1.8298 11.498-5.9961c-2.925-0.53375-5.8178-2.0523-8.3203-4.1973zm27.18 4.4688c-0.06375-0.01375-0.12711 0.0063-0.16211 0.0625-0.05 0.06375-0.03875 0.16266 0.03125 0.22266 0.06875 0.06375 0.17406 0.04305 0.22656-0.0332 0.0075 0 0.01117-0.0193 0.01367-0.0293-0.03875-0.06625-0.07688-0.14641-0.10938-0.22266zm-8.2148 4.4316c1.1838 1.2312 3.0156 1.9102 3.0156 1.9102s-1.3054 0.06398-1.8691 0.02148c1.32 1.035 3.218 1.2127 3.4805 1.0664-0.405-1.3575-1.5098-2.8164-1.5098-2.8164s-1.2359 0.20336-3.1172-0.18164z" transform="matrix(.8 0 0 -.8 674.11 189.92)" fill="#8c2232"/></g></g></svg>
