<svg xmlns="http://www.w3.org/2000/svg" height="250.16" viewBox="0 0 197 250.15674" width="197"><g transform="matrix(1.25 0 0 -1.25 -619.05 1030.3)"><g><path d="m495.97 823.38v-61.648h7.8486v-75.23h-7.8486v-61.648h125.67l30.326 27.2v144.14l-30.326 27.189h-125.67zm71.651-61.648h20.546v-75.227h-20.546v75.227z"/><path d="m499.9 819.45v-53.786h7.8459v-83.089h-7.8459v-53.786h120.24l27.899 25.023v140.63l-27.899 25.012h-120.24zm92.194-136.88h-28.408v83.092h28.408v-83.092z" fill="#fff"/><path d="m510.75 808.6v-32.088h7.8459v-104.79h-7.8459v-32.088h105.24l21.202 19.017v130.94l-21.202 19.009h-105.24zm87.957-32.088c1.0386-0.92826 3.3418-2.9947 4.2377-3.7992v-97.29c-1.5256-1.3426-4.1974-3.6915-4.2001-3.6969h-45.905v104.79h45.867z"/><path d="m614.48 804.67h-99.798v-24.224h7.8459v-112.65h-7.8459v-24.224h99.798l18.775 16.841v127.43l-18.775 16.833zm-65.573-136.88v112.65h51.305c1.0359-0.92557 5.4754-4.9131 6.6647-5.9786v-100.82c-1.2054-1.0628-5.6234-4.9481-6.6512-5.8521h-51.318z" fill="#00693e"/></g></g></svg>
