<?xml version="1.0" encoding="UTF-8" standalone="no"?>
<svg xmlns:rdf="http://www.w3.org/1999/02/22-rdf-syntax-ns#" xmlns="http://www.w3.org/2000/svg" xml:space="preserve" height="89.179" viewBox="0 0 252 89.178788" width="252" version="1.1" xmlns:cc="http://creativecommons.org/ns#" xmlns:dc="http://purl.org/dc/elements/1.1/"><g transform="matrix(1.25 0 0 -1.25 -460.4 612.02)"><g style="" transform="matrix(3.0867 0 0 3.0867 -976.51 -944.61)"><path d="m447.03 449.49-2.048-7.643h43.331l1.665 6.214h-2.081l0.623 2.325h8.463l3.737 14.056h-64.252l2.125-4.101-2.668-9.955h10.646l0.459-0.896z" fill="#fff"/><path d="m499.56 463.55h-61.643l1.613-3.112-2.458-9.173h10.033l0.862-1.681-1.838-6.857h41.496l1.191 4.442h-2.082l1.099 4.096h8.461l3.266 12.285z" fill="#1266ac"/><path d="m499.56 463.55h-61.643l1.613-3.112-2.458-9.173h10.033l0.862-1.681-1.838-6.857h41.496l1.191 4.442h-2.082l1.099 4.096h8.461l3.266 12.285z" fill="#00539f"/><path d="m14.922 3.5801 1.0723 2.0879-2.832 10.568h6.2969l0.98633-3.6875h-2.2637l-0.44336 1.6641h-1.4395l0.87695-3.2754h2.8945l0.58984-2.1992h-2.8945l0.82227-3.0703h1.3926l-0.4375 1.6309h2.2773l0.99609-3.7188h-7.8945zm9.002 0 1.0547 2.0879-2.832 10.568h6.2031l0.98633-3.6875h-2.2461l-0.44727 1.6641h-1.3594l2.8496-10.633h-4.209zm9.9668 0 0.54883 2.0879-4.748 10.568h2.4688l1.6055-3.6875h1.8496l-0.35352 3.6875h2.5781l0.95508-12.656h-4.9043zm6.3574 0 1.0703 2.0879-1.5488 10.568h3.0996l3.2617-8.0352-1.0312 8.0352h2.9746l5.2578-12.656h-2.5312l-2.8535 7.6406 0.93945-7.6406h-2.959l-3.1582 7.6562 1.2773-7.6562h-3.7988zm14.555 0 0.54883 2.0879-4.748 10.568h2.4688l1.6055-3.6875h1.8496l-0.35352 3.6875h2.5781l0.95312-12.656h-4.9023zm7.1035 0 1.0918 1.9473-2.8691 10.709h2.625l1.4141-5.2832h1.125l0.45312 0.55273-1.2695 4.7305h2.6289l1.4492-5.4082-0.81055-0.93555 1.3066-0.91602 1.0254-3.8301-1.3379-1.5664h-6.832zm-56.014 0.00195 1.0723 2.0723-2.8359 10.584h5.2363l2.1426-1.5684 2.5527-9.5234-1.3047-1.5645h-6.8633zm65.029 0 1.0703 2.0859-2.8301 10.57h6.2949l0.98633-3.6875h-2.2617l-0.44336 1.6621h-1.4395l0.87695-3.2754h2.8945l0.58789-2.1992h-2.8945l0.82227-3.0703h1.3926l-0.4375 1.6309h2.2793l0.99609-3.7168h-7.8945zm-61.367 2.0859h1.3262l0.33594 0.41211-2.0684 7.7207-0.55273 0.39453h-1.3242l2.2832-8.5273zm56.031 0h1.2812l0.33594 0.39844-0.56836 2.1191-0.74414 0.53711h-1.125l0.82031-3.0547zm-29.491 1.6153-0.395 3.6548h-1.1855l1.5801-3.6543zm20.914 0-0.39648 3.6543h-1.1855l1.582-3.6543z" transform="matrix(.8 0 0 -.8 435.14 465.34)" fill="#ffd200"/><path d="m16.844 17.684 0.77344 1.5059-2.043 7.623h1.8711l1.0273-3.834h2.0195l0.42383-1.5742h-2.0215l0.5918-2.2148h0.94727l-0.3125 1.1758h1.6523l0.7207-2.6816h-5.6504zm5.9336 0 0.77734 1.4941-1.7441 6.5039 0.94141 1.1309h2.6562l1.5488-1.1309 1.8398-6.8672-0.93945-1.1309h-5.0801zm6.6426 0 0.77539 1.4941-1.7441 6.5039 0.94141 1.1309h2.6602l1.5449-1.1309 1.8418-6.8672-0.94336-1.1309h-5.0762zm6.6406 0 0.77148 1.5059-0.31445 1.1758h1.5762l0.31445-1.1758h0.37695l-2.043 7.623h1.8711l2.041-7.623h0.38867l-0.31445 1.1758h1.5977l0.71875-2.6816h-6.9844zm7.3262 0 0.77148 1.5059-2.043 7.623h3.7676l1.5566-1.1289 0.72461-2.7051-0.61523-0.72852 1-0.70898 0.73047-2.7266-0.95117-1.1309h-4.9414zm7.5781 0 0.39453 1.5059-3.4238 7.623h1.7793l1.1582-2.6582h1.334l-0.25586 2.6582h1.8613l0.68945-9.1289h-3.5371zm5.1211 0 0.75976 1.5059-2.041 7.623h4.4727l0.71289-2.6582h-1.6191l-0.32227 1.1973h-0.98047l2.0547-7.668h-3.0371zm5.2715 0 0.76172 1.5059-2.043 7.623h4.4727l0.71289-2.6582h-1.6191l-0.32227 1.1973h-0.98047l2.0547-7.668h-3.0371zm-35.617 1.5039h0.76562l0.24219 0.28711-1.498 5.5918-0.39453 0.28516h-0.76562l-0.24414-0.28516 1.5-5.5918 0.39453-0.28711zm6.6426 0h0.76367l0.24414 0.28711-1.498 5.5918-0.39648 0.28516h-0.76562l-0.24414-0.28516 1.5-5.5918 0.39648-0.28711zm13.646 0.002h0.95898l0.24219 0.28516-0.43945 1.6445-0.50781 0.27344h-0.84375l0.58984-2.2031zm6.5234 1.1641-0.2832 2.6367h-0.85547l1.1387-2.6367zm-7.541 2.6367h0.84375l0.32422 0.41016-0.44922 1.6777-0.39453 0.27148h-0.95703l0.63281-2.3594z" transform="matrix(.8 0 0 -.8 435.14 465.34)" fill="#fff"/></g></g></svg>
