<svg xmlns="http://www.w3.org/2000/svg" height="245.99" width="250" viewBox="0 0 250 245.99246"><path fill="#fff" d="m209 78.519-0.0421-31.41-46.553-46.441h-72.987l-47.146 46.29 0.06453 31.507c-22.947 7.896-41.25 17.343-41.25 17.343l-0.2048 120.49 13.831 8.9944 18.269-11.023 8.4164-16.328 48.108 46.717 72.64-0.19638 37.342-37.136c1.6636 2.3005 4.368 3.7957 7.4541 3.7957 3.4451 0 6.4302-1.8769 8.0039-4.6598 9.8726 7.4428 33.913 26.807 33.913 26.807l0.0281-137.78s-23.692-11.78-39.885-16.968"/><path d="m117.75 69.595-6.5671 6.4571v43.835l7.1282 6.7736h11.985l0.0875 39.961h-9.6352v-26.881h-9.5656v29.375l6.585 6.4751 16.009 0.10099 6.4998-6.576-0.18404-46.87-7.0137-6.7242-12.093 0.009-0.0314-35.975 9.6778 0.04264 0.0224 23.066 9.4915-0.0157 0.0292-26.627-6.4481-6.4257h-15.978zm24.522 14.068 0.0179 9.1526c2.608 0.25137 6.5962 0.70025 6.5962 0.70025l-0.009 61.84c3.2544 0.47132 6.6524 0.88653 9.6105 1.4117l-0.3-62.114s3.6314 0.51172 6.9419 1.0795v-9.2379c-7.8868-1.3938-14.932-2.1344-22.864-2.8347zm-44.327 1.1469c-4.1409 0.55436-8.3087 1.0526-12.488 1.8337l-5.1958 6.8252 0.07855 60.742 4.7042 4.2307c5.3192-1.2815 9.303-1.9302 14.44-2.718l4.307-5.6626 0.19302-59.315-6.0396-5.9364zm75.117 3.1399-5.7905 5.299 0.009 65.422c2.9244 0.7586 5.8062 1.3556 8.6342 2.2646v-32.604l5.6558 1.6137v32.934c2.92 1.0773 5.7793 2.0132 8.5736 3.2476v-66.535l-4.9578-8.9237c-4.2127-1.1357-7.9092-1.8112-12.124-2.7135v-0.0045zm-97.509 0.579c-2.9087 0.66658-5.8197 1.2277-8.7217 2.0065l-0.17955 73.293c2.9312-0.98304 5.6177-1.9145 8.8765-2.8885l0.02469-72.411zm-13.5 3.2903c-3.0187 0.87307-6.0262 1.5329-9.0314 2.6439v29.799l-5.878 2.2534-0.10549-30.245c-3.0367 1.093-5.8646 1.91-8.8631 3.1287l-0.01347 78.621c3.187-2.1995 5.6446-3.3845 9.478-5.7075l-0.09202-35.924s3.3935-1.4746 5.988-2.3588l0.08753 35.187c2.9222-1.4207 5.3596-2.3611 8.4209-3.6561l0.009-73.742zm131.02 0.94713v0.0045l0.0337 9.5386c0.66883 0.19078 7.081 2.1838 7.081 2.1838l0.0157 65.933c3.1601 1.58 5.8938 3.0614 8.7239 4.895l0.0269-67.765s7.8105 3.0209 8.376 3.2701v-9.8416c-7.7835-3.3127-16.252-5.7703-24.257-8.2189zm-98.187 2.0918 0.23117 52.348-6.1025 1.1402 0.202-52.669 5.6693-0.8192zm81.112 3.086h0.004l5.3753 1.3332-0.0135 20.978-5.3618-1.3489-0.004-20.963zm44.248 4.2037c0.007 0.002 0.0157 0.004 0.0224 0.009v-0.004l-0.0224-0.004zm0.0224 0.009 0.24015 99.902c6.511 4.9511 16.072 12.524 22.042 17.594v-11.978c-4.0848-3.306-12.479-10.075-12.479-10.075v-36.453s8.6409 4.6885 12.479 7.0317v-11.372c-3.7481-2.3499-12.86-7.1843-12.86-7.1843l0.0224-33.156s8.4613 4.206 12.86 6.6883v-10.519c-7.0698-4.1633-14.858-7.1349-22.305-10.477zm-194.43 2.0199c-4.6818 2.1928-9.1658 4.2374-13.655 6.7511l-4.5765 8.7329v93.268l7.2417 4.8524c1.2091-0.75411 12.574-7.6444 13.299-8.0439l4.2531-9.1122 0.08753-91.591-6.6501-4.8569zm-2.2758 11.125-0.0067 86.546-6.651 4.5202 0.04399-87.576 6.6138-3.49z"/><path fill="#b0b7bc" d="m91.998 6.9704-43.415 42.626 0.07 33.45c-13.556 4.34-27.772 9.519-40.908 16.592v7.0487c14.442-8.336 36.017-15.536 47.729-18.975v-34.972l39.501-38.844 61.891-0.01315 39.041 38.588-0.0482 35.113c13.509 3.7957 33.713 11.464 46.724 18.722v-7.0532c-13.08-7.026-26.04-11.735-39.87-16.159l-0.0438-33.372-42.863-42.758h-67.801zm20.541 49.428-14.488 14.185v8.412c2.4632-0.31702 4.3757-0.40592 6.8164-0.64439v-4.9841l10.38-10.13h21.076l10.135 10.082v4.9183c2.4408 0.23005 4.4322 0.53304 6.8954 0.84164v-8.4865l-14.15-14.194h-26.666zm34.117 104v11.31l-10.126 10.139-21.361 0.0351-10.288-9.999v-11.437c-2.48 0.31983-4.4057 0.37576-6.8297 0.80219v13.431l14.299 14.01 26.793 0.19725 14.255-14.369 0.0351-13.111c-2.4239-0.41521-4.2998-0.69962-6.7769-1.0082zm-91.165 13.65c-7.1652 3.4815-12.184 6.5628-17.324 10.328v8.1184c3.0946-2.4632 6.9293-5.6931 10.411-7.7326v10.315l43.532 43.279 67.428 0.0658 43.126-43.157v-10.113c4.873 2.9233 9.1899 5.8697 13.199 9.2756v-7.9736c-5.8718-4.4888-12.453-8.8593-19.941-12.405l-0.0395 18.187-38.974 39.342-62.116-0.035-39.304-39.088v-18.407z"/><path fill="#CE0F3D" d="m97.504 20.217-35.771 35.221v30.544c10.181-2.8477 19.956-4.5886 30.028-6.1063v-12.059l18.13-17.683h31.947l17.78 17.802v11.862c10.066 1.4813 19.787 3.339 29.972 6.1501v-30.346l-35.38-35.385h-56.707zm62.163 142.1-0.0263 14.847-17.635 18.043-32.259-0.23234-18.003-17.767v-14.795c-10.624 2.1013-21.033 5.1192-29.949 8.96v18.398l35.574 35.033 56.978 0.44273 35.266-35.643 0.004-18.258c-9.3788-3.9726-18.923-6.8615-29.949-9.0301z"/></svg>