<svg xmlns="http://www.w3.org/2000/svg" height="250.19" viewBox="0 0 194 250.18933" width="194"><g transform="matrix(1.25 0 0 -1.25 -775.87 1678.6)"><g><path d="m661.27 1232.3v47.009h34.063v-47.009l5.7807 5.3895v63.809l-6.8661 6.4048h-31.891l-6.8676-6.4048v-63.809l5.7807-5.3895zm30.759-88.883-30.759 28.683v25.122h-9.0861l-30.759 28.683v87.381l30.759 28.683h52.237l30.759-28.683v-87.381l-30.759-28.683h-9.0876v-13.335l6.8676-6.4048h31.893l6.8661 6.4048v95.422h34.065v-107.21l-30.758-28.683h-52.237z" fill="#fff"/><path d="m695.33 1310.7 8.5367-7.9619v-66.205l-8.5367-7.9604h-2.756v48.022h-28.553v-48.022h-2.753l-8.5382 7.9604v66.205l8.5382 7.9619h34.062zm48.382-34.105v-93.865l-8.5382-7.9619h-34.063l-8.5367 7.9619v17.29h10.757l29.09 27.124v84.985l-29.09 27.126h-50.066l-29.089-27.126v-84.985l29.089-27.124h10.757v-26.679l29.09-27.127h50.065l29.089 27.127v103.25h-28.553z" fill="#841617"/></g></g></svg>
