<svg xmlns="http://www.w3.org/2000/svg" height="30.795" viewBox="0 0 228.506 30.795" width="228.51"><g transform="matrix(1.25 0 0 -1.25 -87.192 522.65)"><path d="m126.57 0.92773c-4.96 0-10.28 2.6925-10.28 8.3125 0 5.1598 4.12 6.7388 8.2 7.8168 4.05 1.076 8.17 1.578 8.17 4.545 0 2.81-3.23 3.425-5.36 3.425-3.23 0-6.08-1.424-6.08-5.086h-5.85c-0.08 6.779 5.62 9.782 11.7 9.782 7.47 0 11.44-3.774 11.44-8.815 0-6.237-6.16-7.509-8.16-8.008-6.9-1.771-8.2-2.044-8.2-4.1598 0-2.3087 2.23-3.1172 4.15-3.1172 2.89 0 5.24 0.845 5.43 4.1563h5.85c0-6.3513-5.27-8.8516-11.01-8.8516zm-125.5 0.65427v27.486h6.0468v-9.857h6.3519c6.853 0 9.509-4.349 9.509-8.813 0-4.4696-2.656-8.816-9.509-8.816h-12.399zm24.533 0v27.486h20.868v-5.08h-14.821v-6.738h13.319v-4.697h-13.319v-5.8909h14.514v-5.0801h-20.561zm24.7 0v27.486h5.656v-18.4h0.082l11.432 18.4h6.043v-27.486h-5.659v18.438h-0.076l-11.472-18.438h-6.006zm27.566 0v27.486h5.656v-18.4h0.078l11.434 18.4h6.051v-27.486h-5.666v18.438h-0.076l-11.473-18.438h-6.004zm61.509 0v5.0801h8.24v22.406h6.04v-22.406l8.24 0.0001v-5.0801h-22.52zm29.46 0l-10.44 27.486h6.13l2.15-6.119h10.28l2.08 6.119h6.27l-10.27-27.486h-6.2zm13 0v5.0801h8.24v22.406h6.04v-22.406l8.24 0.0001v-5.0801h-22.52zm24.87 0v27.486h20.87v-5.08h-14.83v-6.738h13.33v-4.697h-13.33v-5.8909h14.52v-5.0801h-20.56zm-199.59 4.6953h4.6949c2.81 0 5.315 0.6149 5.315 4.1207 0 3.502-2.505 4.118-5.315 4.118h-4.6949v-8.2387zm164.72 2.0762h0.08l3.46 10.088-7.12-0.001 3.58-10.088z" transform="matrix(.8 0 0 -.8 69.754 418.12)" fill="#001E44"/></g></svg>
