<svg xmlns="http://www.w3.org/2000/svg" height="102.59" viewBox="0 0 89.541024 102.59375" width="89.541"><g transform="matrix(1.25 0 0 -1.25 -75.912 726.37)"><g transform="translate(.29845 .29845)"><path d="m0 0v22.951h10.926v55.703h-10.926v22.939h51.947v-22.939h-10.926v-15.893h11.283c10.272 0 19.533-3.1126 26.072-8.7695 6.5571-5.6679 10.164-13.699 10.164-22.611 0-8.9106-3.607-16.942-10.164-22.609-6.538-5.6532-15.799-8.769-26.071-8.769h-47.37-4.935zm4.0312 3.5781h0.9043 47.369c18.962 0 32.205 11.431 32.205 27.803s-13.243 27.805-32.205 27.805h-15.316v23.047h10.928v15.787h-43.885v-15.787h10.93v-62.857h-10.93v-15.797zm32.957 15.797v24.102h11.422c9.8008 0 16.135-4.7294 16.135-12.049 0-7.3228-6.3339-12.053-16.135-12.053h-9.4023-2.0195zm4.0332 3.5762h7.3887c7.5787 0 12.102 3.1682 12.102 8.4766 0 5.3058-4.5229 8.4746-12.102 8.4746h-7.3887v-16.951z" transform="matrix(.8 0 0 -.8 60.73 580.3)" fill="#fff"/><path d="m2.0156 1.7891v10.439c13.646 7.7555 26.628 18.182 36.992 27.545v-8.3457-2.7832c-9.921-11.042-20.548-20.145-28.947-26.855h-5.125-2.9199zm20.871 0c6.801 5.6556 13.988 12.242 21.107 19.375h4.416c8.8411 0 14.117 4.026 14.117 10.264 0 2.659-0.96292 4.9141-2.75 6.6289 4.9099 5.6228 9.6031 11.38 13.9 17.121 4.2901-2.7835 7.6603-6.4746 9.8711-10.863-13.907-19.054-32.259-32.851-49.191-42.526h-11.471zm34.441 2.3144c15.815 15.12 23.749 28.062 27.693 36.692 0.98399-2.9118 1.5039-6.0654 1.5039-9.4141 0-0.8053-0.02939-1.6003-0.08789-2.3828-14.968-18.496-29.109-24.896-29.109-24.896zm-40.853 27.418c8.359 10.002 16.204 19.963 23.275 29.454h8.248c-16.418-16.582-31.523-29.454-31.523-29.454zm33.094 10.141c-0.37941 0.01563-0.76499 0.02539-1.1582 0.02539h-7.3027c8.8088 8.107 15.478 15.189 18.672 18.691 0.31419-0.0515 0.62658-0.10546 0.93555-0.16406-3.1205-6.5403-6.9359-12.741-11.146-18.553zm-36.625 0.13672v13.107c8.0999 7.4583 16.342 16.124 24.527 26.166 0 0-8.3661-19.499-24.527-39.273zm0 27.76v5.5391c8.6345 9.0744 14.96 17.108 19.9 24.713h13.686c-11.897-12.538-23.851-22.729-33.587-30.252zm-10.93 10.883v7.3008c4.0345 3.7374 8.0532 7.7565 12.006 12.068h4.0684c-2.945-5.303-7.151-12.073-12.797-19.37h-3.2773z" transform="matrix(.8 0 0 -.8 60.73 580.3)" fill="#000"/><path d="m10.061 1.7891c8.3994 6.71 19.027 15.813 28.947 26.855v-7.4805h4.9863c-7.119-7.133-14.305-13.719-21.105-19.375h-12.828zm24.299 0c16.932 9.6754 35.282 23.472 49.189 42.525 0.5684-1.1282 1.0618-2.3031 1.4727-3.5195-3.945-8.629-11.879-21.571-27.694-36.692 0 0 14.141 6.3992 29.109 24.895-1.225-16.14-14.917-27.209-34.132-27.209h-17.945zm-32.346 10.44v8.9375h10.928v6.9297 13.703c16.161 19.774 24.529 39.273 24.529 39.273-8.186-10.042-16.43-18.709-24.53-26.168v6.1621 8.4922c9.7366 7.5233 21.691 17.714 33.588 30.252h3.4023v-19.369h-10.924v-19.467h0.74219c-7.07-9.49-14.916-19.451-23.275-29.453 0 0 15.106 12.872 31.523 29.453h4.3066c2.5987 0 5.0953-0.20572 7.4746-0.5957-3.194-3.501-9.864-10.583-18.673-18.69h-2.0996v-1.9141c-10.363-9.363-23.347-19.79-36.993-27.545zm57.765 25.828c-2.2165 2.1268-5.7047 3.4176-10.211 3.6055 4.2106 5.8118 8.024 12.012 11.145 18.553 4.898-0.9163 9.2717-2.6398 12.965-5.0371-4.2973-5.7414-8.9885-11.498-13.898-17.121zm-46.836 37.041v5.3438h-7.6523c5.6459 7.2967 9.8521 14.066 12.797 19.369h14.756c-4.941-7.605-11.266-15.639-19.901-24.713zm-10.93 12.645v12.068h12.006c-3.953-4.312-7.9708-8.331-12.005-12.069z" transform="matrix(.8 0 0 -.8 60.73 580.3)" fill="#FF6000"/></g></g></svg>