<svg xmlns="http://www.w3.org/2000/svg" height="121.78" viewBox="0 0 250 121.77587" width="250"><g transform="matrix(1.25 0 0 -1.25 19.6 965.7)"><path d="m122.16 1.127c-7.65 0-13.57 0.473-14.8 0.58l-0.38 0.0235-1.26 0.0722-0.88 0.9082-18.119 18.654-0.92 0.947v1.323 51.498 1.299l0.89 0.943 17.069 18.086 1.09 1.146 1.56-0.134 0.54-0.047c0.67-0.055 6.85-0.553 14.88-0.553 5.34 0 10.22 0.218 14.52 0.656l0.5 0.069 1.62 0.211 1.14-1.166 17.78-18.229 0.92-0.953v-1.328-14.66-2.914l-2.89-0.327-17.96-2.025-3.62-0.412v3.65 7.272c-1.34 1.333-3.68 3.669-5.03 5.015-2.15-0.083-4.37-0.125-6.64-0.125-3 0-5.66 0.077-7.66 0.161-1.14-1.201-2.82-2.975-3.88-4.084v-34.174c0.56-0.58 1.32-1.36 2.13-2.198 1.41-1.456 2.94-3.04 3.9-4.037 1.89-0.054 3.75-0.082 5.57-0.082 1.79 0 3.57 0.028 5.29 0.08 1.57 1.556 4.72 4.678 6.32 6.272v6.291 2.951l2.93 0.291 17.96 1.797 3.58 0.359v-3.603-16.996-1.307l-0.9-0.947-17.75-18.529-0.88-0.9223-1.28-0.0801-0.35-0.0176c-4.54-0.4697-9.59-0.705-14.99-0.705zm-41.359 1.9804l-3.686 0.4864-1.291 0.1699c-39.407 5.271-71.016 19.17-72.342 19.759l-0.6968 0.319-1.9122 0.867 0.00005 2.1v34.382 5.135l4.6484-2.185 1.6173-0.758c2.0144-0.953 7.5643-3.493 15.734-6.627l0.697-0.254 2.155-0.779v-2.287-11.448c1.229-0.441 2.415-0.86 3.56-1.259v47.386c-2.774 1.133-5.319 2.21-7.732 3.28l-0.674 0.294-1.938 0.862v2.121 21.008 5.22l4.692-2.29 1.605-0.79c11.683-5.6 23.774-10.44 35.926-14.37l0.752-0.22 2.338-0.69v-2.44-19.469-4.367l-4.192 1.242-1.445 0.43c-1.599 0.459-3.23 0.946-4.869 1.453v-45.965c1.302-0.326 2.534-0.629 3.711-0.91v9.285 4.09l3.984-0.912 1.393-0.317c5.041-1.151 9.85-2.107 14.297-2.838l0.945-0.162 2.723-0.455v-2.76-31.619-3.7186zm81.929 0.3516v3.7969 18.896 2.846l2.82 0.389 0.99 0.134 0.03 0.006 0.04 0.002c0.58 0.068 1.65 0.219 3.16 0.461v49.528 0.908l0.47 0.777 13.49 22.367 0.68 1.12 1.26 0.34 0.42 0.12c2.17 0.61 13.73 4 25.67 10l0.68 0.34 1.94 0.98 1.65-1.43 22.79-19.7 1.13-0.977v-1.49-41.547c0.83 0.415 1.67 0.837 2.51 1.268l0.02 0.01 0.02 0.009 1.66 0.834 4.71 2.356v-5.276-20.506-2.044l-1.84-0.891v0.002l-0.64-0.311c-8.95-4.457-19.65-8.572-31.76-12.207l-1.49-0.433-4.17-1.209v4.34 19.566 2.35l2.23 0.744c1.28 0.422 2.91 0.96 4.2 1.39v41.678c-1.27 1.104-3.3 2.871-4.7 4.092-2.84-1.065-8.07-3.019-10.32-3.861-1.25-2.075-4.13-6.885-5.24-8.741v-39.164c1.95 0.493 3.87 0.979 4.02 1.016l4.06 1.025v-4.187-19.256-2.608l-2.55-0.574-0.81-0.181c-14.97-3.711-27.44-5.6624-32.1-6.3304l-1.28-0.1934-3.75-0.5742z" transform="matrix(.8 0 0 -.8 -15.68 772.56)" fill="#4d1979"/></g></svg>
