<?xml version="1.0" encoding="UTF-8" standalone="no"?>
<svg xmlns:rdf="http://www.w3.org/1999/02/22-rdf-syntax-ns#" xmlns="http://www.w3.org/2000/svg" xml:space="preserve" height="137.3" viewBox="0 0 140.76083 137.29781" width="140.76" version="1.1" xmlns:cc="http://creativecommons.org/ns#" xmlns:dc="http://purl.org/dc/elements/1.1/"><g transform="matrix(1.25 0 0 -1.25 -67.5 432.65)"><g style=""><g fill="#00356b"><g transform="matrix(.24743 0 0 -.24414 102.13 322.76)"><path d="m0 0c-0.8 0.05-15.8-0.083-23.7 0.017-1.7 1.9 1.7 3.5 1.4 5.799-8.6 3.101-12.7-4.6-15.8-10.1-0.2-1.4-2.45-3.75-2.95-5.049l32.25 0.049 0.2-77.099-176.7-0.2-0.4 0.899v77.601l51.1 0.2c16.7 24.4 32.9 49.099 48.2 74.199l-6.5 3.601-46-69.201-55.65-0.049 0.15-95.65 1.5-0.701h192.85l0.05 95.684z" fill="#00356b"/></g><g transform="matrix(.24743 0 0 -.24414 166.61 346.09)"><path d="m0 0-0.15 95.5-55.25 0.1c-21.201 32-42.201 64-64.1 95.8-2.9-2.8-4.7-7-2.9-10.8 20.2-31.6 41.799-62.4 62.7-93.6h48.899l1.5-0.25v-77.55l-186.35-0.2c0 4.25-0.1 71.75 0 78h1.25 35.299v2.1c-7.5 10.2-12.399 21.4-19.399 31.7-2.801-0.6-10.2-1.5-6.5-6.5l10.8-17.2-1.401-1.5h-28.099l-1.5-2.1-0.2-93.6h204l1.4 0.1z" fill="#00356b"/></g><g transform="matrix(.24743 0 0 -.24414 126.18 266.16)"><path d="m0 0c2.1 5.1-1.3 13 2.9 16.6h67.6l0.1 105.75-171.4 0.049-95-0.049v-106.5l64.8 0.049c0.1-4.799 5.4-3.299 8.6-3.599 3.5 3.599-0.6 7.7 0.7 12.2l-65.3-0.15-0.2 2.35v84.9l1.5 1.5h246.9 1.4l-0.1-87.1-70.5-0.15 0.1-22.951c2.2-1.899 5.1-2.199 7.9-2.899" fill="#00356b"/></g><g transform="matrix(.24743 0 0 -.24414 97.675 341.7)"><path d="m0 0v59.5c-1.55 0-25.8 0-38.1 0.1 2 10 11 19 15.8 28.8-5.5 18.5-23.2 35-39.6 45.4-16.8-24.8-33.1-49-50.4-74.2-15.1-0.2-42.25-0.1-46.25-0.1l0.15-58.2 2.2-1.4h154.8l1.4 0.1z" fill="#00356b"/></g><g transform="matrix(.24743 0 0 -.24414 161.81 327.17)"><path d="m0 0c-3.075-0.075-40.75 0-45.4 0.1-20.8 31-41.7 61.9-62.6 92.9-4-12.7-26.2 0.5-20.2-18-3.4-5.3-9.6-10-15.8-11.5-3.5-3.6-7.9-8.9-7.9-13.7 9.7-16.3 19.7-32.5 28.8-49l-43.9-0.05v-58.95l1.4-1.4h165.6v59.6z" fill="#00356b"/></g><g transform="matrix(.24743 0 0 -.24414 104.8 315.35)"><path d="m0 0c5.6-3.2 11.5-5.5 18-6.5 18.1-4 36.8-0.4 50.4 10.8 8.6 5.4 7.1 20 19.4 18.7 3.3 1.1 6.9 4.6 8 7.9 3.1 5.6-7.1 14.6 4.3 13.7 7.2-3 14.4 1.4 17.3 7.9 2.7 6.9 3.1 14.6 7.2 20.9 3.1 3.2-0.3 9 2.8 12.2 6.9-4.2 7.4-11.8 11.6-16.5 7.6 5.9 8.9 14.4 10 23 2.1 2.7 4.1 0.8 6.5 2.2-0.1 41.5-30.8 78.5-66.2 97.2-23.1 10-55.501 14.701-79.9 4.3-4.8-0.7-7.7 3.401-11.5 5-16 6.901-37.3 9.1-52.6-0.7-20-11.8-24.2-34.7-21.6-56.9l2.9-8.6c-14.1-23.6-30.6-46.2-44.7-69.8 3.8-12.4 17.2-16.9 26.7-23.1 6-2.4 12.4-3.7 18-7.2-2.4-2.1-5.9-3.2-7.2-6.5 14.7-11.2 29.4-25.6 36.7-42.4 13.2-6.6 23.1 8 34.6 12.2 2.7 1.7 5.7 2.6 9.3 2.2" fill="#00356b"/></g><g transform="matrix(.24743 0 0 -.24414 121.72 264.91)"><path d="m0 0v28.75l2.2 0.05h67.6l1.5 0.45v69.25l-1.5 0.101h-228.8c-0.1-0.601 0.1-68.851 0-70.601l64.7 0.101c1.5-6.5-0.1-14.401 1.4-20.901 11.9-0.099 22-4.599 31.7-10.099 18.7 5.199 41.5 6.799 61.2 2.899" fill="#00356b"/></g></g><g style="" transform="matrix(.24743 0 0 -.24414 102.5 313.43)"><path d="m0 0c9.3 0.8 16.8-7 26.6-7.2 14.4-1.8 33.4-4.5 42.501 9.3 1.099 4.6-1.401 8.2-5.101 10.1-1.8 0.8-4.5 1.2-5 3.6l1.4 1.5 31.701 3.6c4.199 1.1 4.099 6.2 2.899 9.3l-2.2 2.2-47.5-2.2c-2.7 1.4-4.8 4.3-7.2 6.5-1.1 6.6 1.1 12.5 6.5 15.8 5.7 0.5 11.1 2.1 17.3 1.5 2.3 6.8-3.2 12.7-8.7 16.5-3.3 1.7-7.1 2.3-10.1 5.1 2.7 2.4 7.7 1.5 10.8 0.7 23-5.2 41.201-32.7 67-20.2 5.5 4.2 4.6 12 3.6 18-8.2 23.3-39.6 5.5-55.399 18.001-22.701 18.399-32.001 45.999-56.901 63.399-11 8.7-24.6 13.2-39.6 10.1-10.4-1.7-18.8-10.6-22.3-20.2-9.4-22.6 12.6-35.7 18-54 0.4-2.2-0.5-3.7-2.2-5-2.9 0.5-2.6 3.701-3.6 5.701-6.3 9.5-17.2 14-23 23.099-11.9-18.5-24-36.8-35.3-55.5-1.1-7.2 7.4-9.8 11.5-13.6 7.7-4 15.9-6.9 24.5-8.7-3.6 12-3.8 28.7 7.2 36.7 2.6-2.6 0.3-6.8 0-10 0.1-17.2 8.8-32.1 23.8-41.8 7.8-3.4 15.3-7.6 24.4-7.9l1.5-2.2c-5.7-5.4-11.8-9.8-18.7-12.2-5.8 7.2-10.5 16.8-19.5 20.9-5.3 0.1-10.7 0.3-14.4-3.6 9.8-9.3 18.7-22.1 27.4-32.4 10.8 1.4 18.4 10.7 28.1 15.1" fill="#fff"/></g><g style="" transform="matrix(.24743 0 0 -.24414 115.49 304.29)"><path d="m0 0c-1.5 2.7-3.1 6.2-1.4 9.4-2.2 0.2-0.8-2.3-2.2-2.9 0.7-2.4 0.5-6.4 3.6-6.5" fill="#fff"/></g><g style="" transform="matrix(.24743 0 0 -.24414 122.79 303.93)"><path d="m0 0c-8.7 0.9-17.2 16.7-25.2 5-1.699-3.8 2.801-4 4.301-5.8 7.199-0.2 14 0.4 20.899 0.8" fill="#fff"/></g><g style="" transform="matrix(.24743 0 0 -.24414 125.46 303.76)"><path d="m0 0c-4.699 4.2-10.1 9.4-17.3 9.3 5.401-4.2 11.601-6.2 17.3-9.3" fill="#fff"/></g><g style="" transform="matrix(.24743 0 0 -.24414 128.13 303.25)"><path d="m0 0c-0.601 2.3-1.801 5-4.301 5.8h-5c1.2-3.5 4.7-7.4 9.301-5.8" fill="#fff"/></g><g style="" transform="matrix(.24743 0 0 -.24414 139.54 292.87)"><path d="m0 0c-3.9 1.1-9.1 1.1-13 0 5-3.2 8.5-8.3 11.6-12.9 2.6 2.7 0.9 8.6 1.4 12.9" fill="#fff"/></g><g style="" transform="matrix(.24743 0 0 -.24414 140.26 291.11)"><path d="m0 0c-3.5 33.6-29.4 66.899-61.9 77.8-14.701 5.5-33 2.4-46.8-2.901-5 6.101-11.1 12.401-18 15.101 18.8-22.9 29.599-49.101 43.2-74.2 19.699-24.7 54.8-12.7 83.5-15.8" fill="#fff"/></g><g fill="#00356b" transform="matrix(.24743 0 0 -.24414 113.16 307.98)"><path d="m0 0c-7.399 5-11.1 13.8-9.3 22.3 2.3 1.9 3.601 4.2 5 6.5-4.099 1.7-7.999-1.7-11.499-3.6-3-3.9-7.6-8-5.701-13 3.101-7.8 10.101-11.7 18-12.9 1.101 0.2 2.801-0.6 3.5 0.7" fill="#00356b"/></g></g></g></svg>
